G04 ---------------------------- Layer name :TOP LAYER*
G04 easyEDA 0.1*
G04 Scale: 100 percent, Rotated: No, Reflected: No *
G04 Dimensions in inches *
G04 leading zeros omitted , absolute positions ,2 integer and 4 * 
%FSLAX24Y24*%
%MOIN*%
G90*
G70D02*

%ADD10C,0.010000*%
%ADD11C,0.060000*%

%LPD*%
G36*
G01X0Y0D02*
G01X0Y9000D01*
G01X19000Y9000D01*
G01X18900Y0D01*
G01X0Y0D01*
G37*

%LPC*%
G36*
G01X2015Y7600D02*
G01X2076Y7607D01*
G01X2134Y7623D01*
G01X2191Y7648D01*
G01X2242Y7681D01*
G01X2288Y7722D01*
G01X2327Y7769D01*
G01X2358Y7822D01*
G01X2381Y7879D01*
G01X2395Y7938D01*
G01X2400Y8000D01*
G01X2395Y8061D01*
G01X2381Y8120D01*
G01X2358Y8177D01*
G01X2327Y8230D01*
G01X2288Y8277D01*
G01X2242Y8318D01*
G01X2191Y8351D01*
G01X2134Y8376D01*
G01X2076Y8392D01*
G01X2015Y8399D01*
G01X1953Y8397D01*
G01X1893Y8385D01*
G01X1836Y8365D01*
G01X1782Y8335D01*
G01X1733Y8298D01*
G01X1691Y8254D01*
G01X1656Y8204D01*
G01X1628Y8149D01*
G01X1610Y8091D01*
G01X1601Y8030D01*
G01X1601Y7969D01*
G01X1610Y7908D01*
G01X1628Y7850D01*
G01X1656Y7795D01*
G01X1691Y7745D01*
G01X1733Y7701D01*
G01X1782Y7664D01*
G01X1836Y7634D01*
G01X1893Y7614D01*
G01X1953Y7602D01*
G01X2015Y7600D01*
G37*
G36*
G01X6015Y7600D02*
G01X6076Y7607D01*
G01X6134Y7623D01*
G01X6191Y7648D01*
G01X6242Y7681D01*
G01X6288Y7722D01*
G01X6327Y7769D01*
G01X6358Y7822D01*
G01X6381Y7879D01*
G01X6395Y7938D01*
G01X6400Y8000D01*
G01X6395Y8061D01*
G01X6381Y8120D01*
G01X6358Y8177D01*
G01X6327Y8230D01*
G01X6288Y8277D01*
G01X6242Y8318D01*
G01X6191Y8351D01*
G01X6134Y8376D01*
G01X6076Y8392D01*
G01X6015Y8399D01*
G01X5953Y8397D01*
G01X5893Y8385D01*
G01X5836Y8365D01*
G01X5782Y8335D01*
G01X5733Y8298D01*
G01X5691Y8254D01*
G01X5656Y8204D01*
G01X5628Y8149D01*
G01X5610Y8091D01*
G01X5601Y8030D01*
G01X5601Y7969D01*
G01X5610Y7908D01*
G01X5628Y7850D01*
G01X5656Y7795D01*
G01X5691Y7745D01*
G01X5733Y7701D01*
G01X5782Y7664D01*
G01X5836Y7634D01*
G01X5893Y7614D01*
G01X5953Y7602D01*
G01X6015Y7600D01*
G37*
G36*
G01X9015Y1600D02*
G01X9076Y1607D01*
G01X9134Y1623D01*
G01X9191Y1648D01*
G01X9242Y1681D01*
G01X9288Y1722D01*
G01X9327Y1769D01*
G01X9358Y1822D01*
G01X9381Y1879D01*
G01X9395Y1938D01*
G01X9400Y2000D01*
G01X9395Y2061D01*
G01X9381Y2120D01*
G01X9358Y2177D01*
G01X9327Y2230D01*
G01X9288Y2277D01*
G01X9242Y2318D01*
G01X9191Y2351D01*
G01X9134Y2376D01*
G01X9076Y2392D01*
G01X9015Y2399D01*
G01X8953Y2397D01*
G01X8893Y2385D01*
G01X8836Y2365D01*
G01X8782Y2335D01*
G01X8733Y2298D01*
G01X8691Y2254D01*
G01X8656Y2204D01*
G01X8628Y2149D01*
G01X8610Y2091D01*
G01X8601Y2030D01*
G01X8601Y1969D01*
G01X8610Y1908D01*
G01X8628Y1850D01*
G01X8656Y1795D01*
G01X8691Y1745D01*
G01X8733Y1701D01*
G01X8782Y1664D01*
G01X8836Y1634D01*
G01X8893Y1614D01*
G01X8953Y1602D01*
G01X9015Y1600D01*
G37*
G36*
G01X10015Y1600D02*
G01X10076Y1607D01*
G01X10134Y1623D01*
G01X10191Y1648D01*
G01X10242Y1681D01*
G01X10288Y1722D01*
G01X10327Y1769D01*
G01X10358Y1822D01*
G01X10381Y1879D01*
G01X10395Y1938D01*
G01X10400Y2000D01*
G01X10395Y2061D01*
G01X10381Y2120D01*
G01X10358Y2177D01*
G01X10327Y2230D01*
G01X10288Y2277D01*
G01X10242Y2318D01*
G01X10191Y2351D01*
G01X10134Y2376D01*
G01X10076Y2392D01*
G01X10015Y2399D01*
G01X9953Y2397D01*
G01X9893Y2385D01*
G01X9836Y2365D01*
G01X9782Y2335D01*
G01X9733Y2298D01*
G01X9691Y2254D01*
G01X9656Y2204D01*
G01X9628Y2149D01*
G01X9610Y2091D01*
G01X9601Y2030D01*
G01X9601Y1969D01*
G01X9610Y1908D01*
G01X9628Y1850D01*
G01X9656Y1795D01*
G01X9691Y1745D01*
G01X9733Y1701D01*
G01X9782Y1664D01*
G01X9836Y1634D01*
G01X9893Y1614D01*
G01X9953Y1602D01*
G01X10015Y1600D01*
G37*
G36*
G01X18015Y1600D02*
G01X18076Y1607D01*
G01X18135Y1623D01*
G01X18191Y1648D01*
G01X18242Y1681D01*
G01X18288Y1722D01*
G01X18327Y1769D01*
G01X18358Y1822D01*
G01X18381Y1879D01*
G01X18395Y1938D01*
G01X18400Y2000D01*
G01X18395Y2061D01*
G01X18381Y2120D01*
G01X18358Y2177D01*
G01X18327Y2230D01*
G01X18288Y2277D01*
G01X18242Y2318D01*
G01X18191Y2351D01*
G01X18135Y2376D01*
G01X18076Y2392D01*
G01X18015Y2399D01*
G01X17953Y2397D01*
G01X17893Y2385D01*
G01X17836Y2365D01*
G01X17782Y2335D01*
G01X17733Y2298D01*
G01X17691Y2254D01*
G01X17656Y2204D01*
G01X17628Y2149D01*
G01X17610Y2091D01*
G01X17601Y2030D01*
G01X17601Y1969D01*
G01X17610Y1908D01*
G01X17628Y1850D01*
G01X17656Y1795D01*
G01X17691Y1745D01*
G01X17733Y1701D01*
G01X17782Y1664D01*
G01X17836Y1634D01*
G01X17893Y1614D01*
G01X17953Y1602D01*
G01X18015Y1600D01*
G37*
G36*
G01X12015Y1600D02*
G01X12076Y1607D01*
G01X12135Y1623D01*
G01X12191Y1648D01*
G01X12242Y1681D01*
G01X12288Y1722D01*
G01X12327Y1769D01*
G01X12358Y1822D01*
G01X12381Y1879D01*
G01X12395Y1938D01*
G01X12400Y2000D01*
G01X12395Y2061D01*
G01X12381Y2120D01*
G01X12358Y2177D01*
G01X12327Y2230D01*
G01X12288Y2277D01*
G01X12242Y2318D01*
G01X12191Y2351D01*
G01X12150Y2369D01*
G01X12150Y2837D01*
G01X12562Y3250D01*
G01X16537Y3250D01*
G01X16850Y2937D01*
G01X16850Y2369D01*
G01X16836Y2365D01*
G01X16782Y2335D01*
G01X16733Y2298D01*
G01X16691Y2254D01*
G01X16656Y2204D01*
G01X16628Y2149D01*
G01X16610Y2091D01*
G01X16601Y2030D01*
G01X16601Y1969D01*
G01X16610Y1908D01*
G01X16628Y1850D01*
G01X16656Y1795D01*
G01X16691Y1745D01*
G01X16733Y1701D01*
G01X16782Y1664D01*
G01X16836Y1634D01*
G01X16893Y1614D01*
G01X16953Y1602D01*
G01X17015Y1600D01*
G01X17076Y1607D01*
G01X17135Y1623D01*
G01X17191Y1648D01*
G01X17242Y1681D01*
G01X17288Y1722D01*
G01X17327Y1769D01*
G01X17358Y1822D01*
G01X17381Y1879D01*
G01X17395Y1938D01*
G01X17400Y2000D01*
G01X17395Y2061D01*
G01X17381Y2120D01*
G01X17358Y2177D01*
G01X17327Y2230D01*
G01X17288Y2277D01*
G01X17242Y2318D01*
G01X17191Y2351D01*
G01X17150Y2369D01*
G01X17150Y3000D01*
G01X17148Y3023D01*
G01X17142Y3046D01*
G01X17133Y3068D01*
G01X17121Y3088D01*
G01X17106Y3106D01*
G01X16706Y3506D01*
G01X16688Y3521D01*
G01X16668Y3533D01*
G01X16646Y3542D01*
G01X16623Y3548D01*
G01X16600Y3550D01*
G01X12500Y3550D01*
G01X12476Y3548D01*
G01X12453Y3542D01*
G01X12431Y3533D01*
G01X12411Y3521D01*
G01X12393Y3506D01*
G01X11893Y3006D01*
G01X11878Y2988D01*
G01X11866Y2968D01*
G01X11857Y2946D01*
G01X11851Y2923D01*
G01X11850Y2900D01*
G01X11850Y2369D01*
G01X11836Y2365D01*
G01X11782Y2335D01*
G01X11733Y2298D01*
G01X11691Y2254D01*
G01X11656Y2204D01*
G01X11628Y2149D01*
G01X11610Y2091D01*
G01X11601Y2030D01*
G01X11601Y1969D01*
G01X11610Y1908D01*
G01X11628Y1850D01*
G01X11656Y1795D01*
G01X11691Y1745D01*
G01X11733Y1701D01*
G01X11782Y1664D01*
G01X11836Y1634D01*
G01X11893Y1614D01*
G01X11953Y1602D01*
G01X12015Y1600D01*
G37*
G36*
G01X16015Y1600D02*
G01X16076Y1607D01*
G01X16135Y1623D01*
G01X16191Y1648D01*
G01X16242Y1681D01*
G01X16288Y1722D01*
G01X16327Y1769D01*
G01X16358Y1822D01*
G01X16381Y1879D01*
G01X16395Y1938D01*
G01X16400Y2000D01*
G01X16395Y2061D01*
G01X16381Y2120D01*
G01X16358Y2177D01*
G01X16327Y2230D01*
G01X16288Y2277D01*
G01X16242Y2318D01*
G01X16191Y2351D01*
G01X16135Y2376D01*
G01X16076Y2392D01*
G01X16015Y2399D01*
G01X15953Y2397D01*
G01X15893Y2385D01*
G01X15836Y2365D01*
G01X15782Y2335D01*
G01X15733Y2298D01*
G01X15691Y2254D01*
G01X15656Y2204D01*
G01X15628Y2149D01*
G01X15610Y2091D01*
G01X15601Y2030D01*
G01X15601Y1969D01*
G01X15610Y1908D01*
G01X15628Y1850D01*
G01X15656Y1795D01*
G01X15691Y1745D01*
G01X15733Y1701D01*
G01X15782Y1664D01*
G01X15836Y1634D01*
G01X15893Y1614D01*
G01X15953Y1602D01*
G01X16015Y1600D01*
G37*
G36*
G01X14015Y1600D02*
G01X14076Y1607D01*
G01X14135Y1623D01*
G01X14191Y1648D01*
G01X14242Y1681D01*
G01X14288Y1722D01*
G01X14327Y1769D01*
G01X14358Y1822D01*
G01X14381Y1879D01*
G01X14395Y1938D01*
G01X14400Y2000D01*
G01X14395Y2061D01*
G01X14381Y2120D01*
G01X14358Y2177D01*
G01X14327Y2230D01*
G01X14288Y2277D01*
G01X14242Y2318D01*
G01X14191Y2351D01*
G01X14135Y2376D01*
G01X14076Y2392D01*
G01X14015Y2399D01*
G01X13953Y2397D01*
G01X13893Y2385D01*
G01X13836Y2365D01*
G01X13782Y2335D01*
G01X13733Y2298D01*
G01X13691Y2254D01*
G01X13656Y2204D01*
G01X13628Y2149D01*
G01X13610Y2091D01*
G01X13601Y2030D01*
G01X13601Y1969D01*
G01X13610Y1908D01*
G01X13628Y1850D01*
G01X13656Y1795D01*
G01X13691Y1745D01*
G01X13733Y1701D01*
G01X13782Y1664D01*
G01X13836Y1634D01*
G01X13893Y1614D01*
G01X13953Y1602D01*
G01X14015Y1600D01*
G37*
G36*
G01X5015Y7600D02*
G01X5076Y7607D01*
G01X5134Y7623D01*
G01X5191Y7648D01*
G01X5242Y7681D01*
G01X5288Y7722D01*
G01X5327Y7769D01*
G01X5358Y7822D01*
G01X5381Y7879D01*
G01X5395Y7938D01*
G01X5400Y8000D01*
G01X5395Y8061D01*
G01X5381Y8120D01*
G01X5358Y8177D01*
G01X5327Y8230D01*
G01X5288Y8277D01*
G01X5242Y8318D01*
G01X5191Y8351D01*
G01X5134Y8376D01*
G01X5076Y8392D01*
G01X5015Y8399D01*
G01X4953Y8397D01*
G01X4893Y8385D01*
G01X4836Y8365D01*
G01X4782Y8335D01*
G01X4733Y8298D01*
G01X4691Y8254D01*
G01X4656Y8204D01*
G01X4628Y8149D01*
G01X4610Y8091D01*
G01X4601Y8030D01*
G01X4601Y7969D01*
G01X4610Y7908D01*
G01X4628Y7850D01*
G01X4656Y7795D01*
G01X4691Y7745D01*
G01X4733Y7701D01*
G01X4782Y7664D01*
G01X4836Y7634D01*
G01X4893Y7614D01*
G01X4953Y7602D01*
G01X5015Y7600D01*
G37*
G36*
G01X6015Y1600D02*
G01X6076Y1607D01*
G01X6134Y1623D01*
G01X6191Y1648D01*
G01X6242Y1681D01*
G01X6288Y1722D01*
G01X6327Y1769D01*
G01X6358Y1822D01*
G01X6381Y1879D01*
G01X6395Y1938D01*
G01X6400Y2000D01*
G01X6395Y2061D01*
G01X6381Y2120D01*
G01X6358Y2177D01*
G01X6327Y2230D01*
G01X6288Y2277D01*
G01X6242Y2318D01*
G01X6191Y2351D01*
G01X6150Y2369D01*
G01X6150Y2537D01*
G01X6462Y2850D01*
G01X10637Y2850D01*
G01X10850Y2637D01*
G01X10850Y2369D01*
G01X10836Y2365D01*
G01X10782Y2335D01*
G01X10733Y2298D01*
G01X10691Y2254D01*
G01X10656Y2204D01*
G01X10628Y2149D01*
G01X10610Y2091D01*
G01X10601Y2030D01*
G01X10601Y1969D01*
G01X10610Y1908D01*
G01X10628Y1850D01*
G01X10656Y1795D01*
G01X10691Y1745D01*
G01X10733Y1701D01*
G01X10782Y1664D01*
G01X10836Y1634D01*
G01X10893Y1614D01*
G01X10953Y1602D01*
G01X11015Y1600D01*
G01X11076Y1607D01*
G01X11134Y1623D01*
G01X11191Y1648D01*
G01X11242Y1681D01*
G01X11288Y1722D01*
G01X11327Y1769D01*
G01X11358Y1822D01*
G01X11381Y1879D01*
G01X11395Y1938D01*
G01X11400Y2000D01*
G01X11395Y2061D01*
G01X11381Y2120D01*
G01X11358Y2177D01*
G01X11327Y2230D01*
G01X11288Y2277D01*
G01X11242Y2318D01*
G01X11191Y2351D01*
G01X11150Y2369D01*
G01X11150Y2700D01*
G01X11148Y2723D01*
G01X11142Y2746D01*
G01X11133Y2768D01*
G01X11121Y2788D01*
G01X11106Y2806D01*
G01X10806Y3106D01*
G01X10788Y3121D01*
G01X10768Y3133D01*
G01X10746Y3142D01*
G01X10723Y3148D01*
G01X10700Y3150D01*
G01X6400Y3150D01*
G01X6376Y3148D01*
G01X6353Y3142D01*
G01X6331Y3133D01*
G01X6311Y3121D01*
G01X6293Y3106D01*
G01X5893Y2706D01*
G01X5878Y2688D01*
G01X5866Y2668D01*
G01X5857Y2646D01*
G01X5851Y2623D01*
G01X5850Y2600D01*
G01X5850Y2369D01*
G01X5836Y2365D01*
G01X5782Y2335D01*
G01X5733Y2298D01*
G01X5691Y2254D01*
G01X5656Y2204D01*
G01X5628Y2149D01*
G01X5610Y2091D01*
G01X5601Y2030D01*
G01X5601Y1969D01*
G01X5610Y1908D01*
G01X5628Y1850D01*
G01X5656Y1795D01*
G01X5691Y1745D01*
G01X5733Y1701D01*
G01X5782Y1664D01*
G01X5836Y1634D01*
G01X5893Y1614D01*
G01X5953Y1602D01*
G01X6015Y1600D01*
G37*
G36*
G01X8015Y1600D02*
G01X8076Y1607D01*
G01X8134Y1623D01*
G01X8191Y1648D01*
G01X8242Y1681D01*
G01X8288Y1722D01*
G01X8327Y1769D01*
G01X8358Y1822D01*
G01X8381Y1879D01*
G01X8395Y1938D01*
G01X8400Y2000D01*
G01X8395Y2061D01*
G01X8381Y2120D01*
G01X8358Y2177D01*
G01X8327Y2230D01*
G01X8288Y2277D01*
G01X8242Y2318D01*
G01X8191Y2351D01*
G01X8134Y2376D01*
G01X8076Y2392D01*
G01X8015Y2399D01*
G01X7953Y2397D01*
G01X7893Y2385D01*
G01X7836Y2365D01*
G01X7782Y2335D01*
G01X7733Y2298D01*
G01X7691Y2254D01*
G01X7656Y2204D01*
G01X7628Y2149D01*
G01X7610Y2091D01*
G01X7601Y2030D01*
G01X7601Y1969D01*
G01X7610Y1908D01*
G01X7628Y1850D01*
G01X7656Y1795D01*
G01X7691Y1745D01*
G01X7733Y1701D01*
G01X7782Y1664D01*
G01X7836Y1634D01*
G01X7893Y1614D01*
G01X7953Y1602D01*
G01X8015Y1600D01*
G37*
G36*
G01X8015Y7600D02*
G01X8076Y7607D01*
G01X8134Y7623D01*
G01X8191Y7648D01*
G01X8242Y7681D01*
G01X8288Y7722D01*
G01X8327Y7769D01*
G01X8358Y7822D01*
G01X8381Y7879D01*
G01X8395Y7938D01*
G01X8400Y8000D01*
G01X8395Y8061D01*
G01X8381Y8120D01*
G01X8358Y8177D01*
G01X8327Y8230D01*
G01X8288Y8277D01*
G01X8242Y8318D01*
G01X8191Y8351D01*
G01X8134Y8376D01*
G01X8076Y8392D01*
G01X8015Y8399D01*
G01X7953Y8397D01*
G01X7893Y8385D01*
G01X7836Y8365D01*
G01X7782Y8335D01*
G01X7733Y8298D01*
G01X7691Y8254D01*
G01X7656Y8204D01*
G01X7628Y8149D01*
G01X7610Y8091D01*
G01X7601Y8030D01*
G01X7601Y7969D01*
G01X7610Y7908D01*
G01X7628Y7850D01*
G01X7656Y7795D01*
G01X7691Y7745D01*
G01X7733Y7701D01*
G01X7782Y7664D01*
G01X7836Y7634D01*
G01X7893Y7614D01*
G01X7953Y7602D01*
G01X8015Y7600D01*
G37*
G36*
G01X5015Y1600D02*
G01X5076Y1607D01*
G01X5134Y1623D01*
G01X5191Y1648D01*
G01X5242Y1681D01*
G01X5288Y1722D01*
G01X5327Y1769D01*
G01X5358Y1822D01*
G01X5381Y1879D01*
G01X5395Y1938D01*
G01X5400Y2000D01*
G01X5395Y2061D01*
G01X5381Y2120D01*
G01X5358Y2177D01*
G01X5327Y2230D01*
G01X5288Y2277D01*
G01X5242Y2318D01*
G01X5191Y2351D01*
G01X5134Y2376D01*
G01X5076Y2392D01*
G01X5015Y2399D01*
G01X4953Y2397D01*
G01X4893Y2385D01*
G01X4836Y2365D01*
G01X4782Y2335D01*
G01X4733Y2298D01*
G01X4691Y2254D01*
G01X4656Y2204D01*
G01X4628Y2149D01*
G01X4610Y2091D01*
G01X4601Y2030D01*
G01X4601Y1969D01*
G01X4610Y1908D01*
G01X4628Y1850D01*
G01X4656Y1795D01*
G01X4691Y1745D01*
G01X4733Y1701D01*
G01X4782Y1664D01*
G01X4836Y1634D01*
G01X4893Y1614D01*
G01X4953Y1602D01*
G01X5015Y1600D01*
G37*
G36*
G01X4015Y1600D02*
G01X4076Y1607D01*
G01X4134Y1623D01*
G01X4191Y1648D01*
G01X4242Y1681D01*
G01X4288Y1722D01*
G01X4327Y1769D01*
G01X4358Y1822D01*
G01X4381Y1879D01*
G01X4395Y1938D01*
G01X4400Y2000D01*
G01X4395Y2061D01*
G01X4381Y2120D01*
G01X4358Y2177D01*
G01X4327Y2230D01*
G01X4288Y2277D01*
G01X4242Y2318D01*
G01X4191Y2351D01*
G01X4134Y2376D01*
G01X4076Y2392D01*
G01X4015Y2399D01*
G01X3953Y2397D01*
G01X3893Y2385D01*
G01X3836Y2365D01*
G01X3782Y2335D01*
G01X3733Y2298D01*
G01X3691Y2254D01*
G01X3656Y2204D01*
G01X3628Y2149D01*
G01X3610Y2091D01*
G01X3601Y2030D01*
G01X3601Y1969D01*
G01X3610Y1908D01*
G01X3628Y1850D01*
G01X3656Y1795D01*
G01X3691Y1745D01*
G01X3733Y1701D01*
G01X3782Y1664D01*
G01X3836Y1634D01*
G01X3893Y1614D01*
G01X3953Y1602D01*
G01X4015Y1600D01*
G37*
G36*
G01X3015Y1600D02*
G01X3076Y1607D01*
G01X3134Y1623D01*
G01X3191Y1648D01*
G01X3242Y1681D01*
G01X3288Y1722D01*
G01X3327Y1769D01*
G01X3358Y1822D01*
G01X3381Y1879D01*
G01X3395Y1938D01*
G01X3400Y2000D01*
G01X3395Y2061D01*
G01X3381Y2120D01*
G01X3358Y2177D01*
G01X3327Y2230D01*
G01X3288Y2277D01*
G01X3242Y2318D01*
G01X3191Y2351D01*
G01X3134Y2376D01*
G01X3076Y2392D01*
G01X3015Y2399D01*
G01X2953Y2397D01*
G01X2893Y2385D01*
G01X2836Y2365D01*
G01X2782Y2335D01*
G01X2733Y2298D01*
G01X2691Y2254D01*
G01X2656Y2204D01*
G01X2628Y2149D01*
G01X2610Y2091D01*
G01X2601Y2030D01*
G01X2601Y1969D01*
G01X2610Y1908D01*
G01X2628Y1850D01*
G01X2656Y1795D01*
G01X2691Y1745D01*
G01X2733Y1701D01*
G01X2782Y1664D01*
G01X2836Y1634D01*
G01X2893Y1614D01*
G01X2953Y1602D01*
G01X3015Y1600D01*
G37*
G36*
G01X2015Y1600D02*
G01X2076Y1607D01*
G01X2134Y1623D01*
G01X2191Y1648D01*
G01X2242Y1681D01*
G01X2288Y1722D01*
G01X2327Y1769D01*
G01X2358Y1822D01*
G01X2381Y1879D01*
G01X2395Y1938D01*
G01X2400Y2000D01*
G01X2395Y2061D01*
G01X2381Y2120D01*
G01X2358Y2177D01*
G01X2327Y2230D01*
G01X2288Y2277D01*
G01X2242Y2318D01*
G01X2191Y2351D01*
G01X2134Y2376D01*
G01X2076Y2392D01*
G01X2015Y2399D01*
G01X1953Y2397D01*
G01X1893Y2385D01*
G01X1836Y2365D01*
G01X1782Y2335D01*
G01X1733Y2298D01*
G01X1691Y2254D01*
G01X1656Y2204D01*
G01X1628Y2149D01*
G01X1610Y2091D01*
G01X1601Y2030D01*
G01X1601Y1969D01*
G01X1610Y1908D01*
G01X1628Y1850D01*
G01X1656Y1795D01*
G01X1691Y1745D01*
G01X1733Y1701D01*
G01X1782Y1664D01*
G01X1836Y1634D01*
G01X1893Y1614D01*
G01X1953Y1602D01*
G01X2015Y1600D01*
G37*
G36*
G01X5400Y3850D02*
G01X9700Y3850D01*
G01X9723Y3851D01*
G01X9746Y3857D01*
G01X9768Y3866D01*
G01X9788Y3878D01*
G01X9806Y3893D01*
G01X10106Y4193D01*
G01X10121Y4211D01*
G01X10133Y4231D01*
G01X10142Y4253D01*
G01X10148Y4276D01*
G01X10150Y4300D01*
G01X10150Y4630D01*
G01X10191Y4648D01*
G01X10242Y4681D01*
G01X10288Y4722D01*
G01X10327Y4769D01*
G01X10358Y4822D01*
G01X10381Y4879D01*
G01X10395Y4938D01*
G01X10400Y5000D01*
G01X10395Y5061D01*
G01X10381Y5120D01*
G01X10358Y5177D01*
G01X10327Y5230D01*
G01X10288Y5277D01*
G01X10242Y5318D01*
G01X10191Y5351D01*
G01X10134Y5376D01*
G01X10076Y5392D01*
G01X10015Y5399D01*
G01X9953Y5397D01*
G01X9893Y5385D01*
G01X9836Y5365D01*
G01X9782Y5335D01*
G01X9733Y5298D01*
G01X9691Y5254D01*
G01X9656Y5204D01*
G01X9628Y5149D01*
G01X9610Y5091D01*
G01X9601Y5030D01*
G01X9601Y4969D01*
G01X9610Y4908D01*
G01X9628Y4850D01*
G01X9656Y4795D01*
G01X9691Y4745D01*
G01X9733Y4701D01*
G01X9782Y4664D01*
G01X9836Y4634D01*
G01X9850Y4630D01*
G01X9850Y4362D01*
G01X9637Y4150D01*
G01X5462Y4150D01*
G01X5150Y4462D01*
G01X5150Y4630D01*
G01X5191Y4648D01*
G01X5242Y4681D01*
G01X5288Y4722D01*
G01X5327Y4769D01*
G01X5358Y4822D01*
G01X5381Y4879D01*
G01X5395Y4938D01*
G01X5400Y5000D01*
G01X5395Y5061D01*
G01X5381Y5120D01*
G01X5358Y5177D01*
G01X5327Y5230D01*
G01X5288Y5277D01*
G01X5242Y5318D01*
G01X5191Y5351D01*
G01X5134Y5376D01*
G01X5076Y5392D01*
G01X5015Y5399D01*
G01X4953Y5397D01*
G01X4893Y5385D01*
G01X4836Y5365D01*
G01X4782Y5335D01*
G01X4733Y5298D01*
G01X4691Y5254D01*
G01X4656Y5204D01*
G01X4628Y5149D01*
G01X4610Y5091D01*
G01X4601Y5030D01*
G01X4601Y4969D01*
G01X4610Y4908D01*
G01X4628Y4850D01*
G01X4656Y4795D01*
G01X4691Y4745D01*
G01X4733Y4701D01*
G01X4782Y4664D01*
G01X4836Y4634D01*
G01X4850Y4630D01*
G01X4850Y4400D01*
G01X4851Y4376D01*
G01X4857Y4353D01*
G01X4866Y4331D01*
G01X4878Y4311D01*
G01X4893Y4293D01*
G01X5293Y3893D01*
G01X5311Y3878D01*
G01X5331Y3866D01*
G01X5353Y3857D01*
G01X5376Y3851D01*
G01X5400Y3850D01*
G37*
G36*
G01X1500Y850D02*
G01X14600Y850D01*
G01X14623Y851D01*
G01X14646Y857D01*
G01X14668Y866D01*
G01X14688Y878D01*
G01X14706Y893D01*
G01X15106Y1293D01*
G01X15121Y1311D01*
G01X15133Y1331D01*
G01X15142Y1353D01*
G01X15148Y1376D01*
G01X15150Y1400D01*
G01X15150Y1630D01*
G01X15191Y1648D01*
G01X15242Y1681D01*
G01X15288Y1722D01*
G01X15327Y1769D01*
G01X15358Y1822D01*
G01X15381Y1879D01*
G01X15395Y1938D01*
G01X15400Y2000D01*
G01X15395Y2061D01*
G01X15381Y2120D01*
G01X15358Y2177D01*
G01X15327Y2230D01*
G01X15288Y2277D01*
G01X15242Y2318D01*
G01X15191Y2351D01*
G01X15135Y2376D01*
G01X15076Y2392D01*
G01X15015Y2399D01*
G01X14953Y2397D01*
G01X14893Y2385D01*
G01X14836Y2365D01*
G01X14782Y2335D01*
G01X14733Y2298D01*
G01X14691Y2254D01*
G01X14656Y2204D01*
G01X14628Y2149D01*
G01X14610Y2091D01*
G01X14601Y2030D01*
G01X14601Y1969D01*
G01X14610Y1908D01*
G01X14628Y1850D01*
G01X14656Y1795D01*
G01X14691Y1745D01*
G01X14733Y1701D01*
G01X14782Y1664D01*
G01X14836Y1634D01*
G01X14850Y1630D01*
G01X14850Y1462D01*
G01X14537Y1150D01*
G01X1562Y1150D01*
G01X1150Y1562D01*
G01X1150Y3437D01*
G01X1562Y3850D01*
G01X3600Y3850D01*
G01X3623Y3851D01*
G01X3646Y3857D01*
G01X3668Y3866D01*
G01X3688Y3878D01*
G01X3706Y3893D01*
G01X4106Y4293D01*
G01X4121Y4311D01*
G01X4133Y4331D01*
G01X4142Y4353D01*
G01X4148Y4376D01*
G01X4150Y4400D01*
G01X4150Y4630D01*
G01X4191Y4648D01*
G01X4242Y4681D01*
G01X4288Y4722D01*
G01X4327Y4769D01*
G01X4358Y4822D01*
G01X4381Y4879D01*
G01X4395Y4938D01*
G01X4400Y5000D01*
G01X4395Y5061D01*
G01X4381Y5120D01*
G01X4358Y5177D01*
G01X4327Y5230D01*
G01X4288Y5277D01*
G01X4242Y5318D01*
G01X4191Y5351D01*
G01X4134Y5376D01*
G01X4076Y5392D01*
G01X4015Y5399D01*
G01X3953Y5397D01*
G01X3893Y5385D01*
G01X3844Y5367D01*
G01X3150Y6062D01*
G01X3150Y7630D01*
G01X3191Y7648D01*
G01X3242Y7681D01*
G01X3288Y7722D01*
G01X3327Y7769D01*
G01X3358Y7822D01*
G01X3381Y7879D01*
G01X3395Y7938D01*
G01X3400Y8000D01*
G01X3395Y8061D01*
G01X3381Y8120D01*
G01X3358Y8177D01*
G01X3327Y8230D01*
G01X3288Y8277D01*
G01X3242Y8318D01*
G01X3191Y8351D01*
G01X3134Y8376D01*
G01X3076Y8392D01*
G01X3015Y8399D01*
G01X2953Y8397D01*
G01X2893Y8385D01*
G01X2836Y8365D01*
G01X2782Y8335D01*
G01X2733Y8298D01*
G01X2691Y8254D01*
G01X2656Y8204D01*
G01X2628Y8149D01*
G01X2610Y8091D01*
G01X2601Y8030D01*
G01X2601Y7969D01*
G01X2610Y7908D01*
G01X2628Y7850D01*
G01X2656Y7795D01*
G01X2691Y7745D01*
G01X2733Y7701D01*
G01X2782Y7664D01*
G01X2836Y7634D01*
G01X2850Y7630D01*
G01X2850Y6000D01*
G01X2851Y5976D01*
G01X2857Y5953D01*
G01X2866Y5931D01*
G01X2878Y5911D01*
G01X2893Y5893D01*
G01X3632Y5155D01*
G01X3628Y5149D01*
G01X3610Y5091D01*
G01X3601Y5030D01*
G01X3601Y4969D01*
G01X3610Y4908D01*
G01X3628Y4850D01*
G01X3656Y4795D01*
G01X3691Y4745D01*
G01X3733Y4701D01*
G01X3782Y4664D01*
G01X3836Y4634D01*
G01X3850Y4630D01*
G01X3850Y4462D01*
G01X3537Y4150D01*
G01X1500Y4150D01*
G01X1476Y4148D01*
G01X1453Y4142D01*
G01X1431Y4133D01*
G01X1411Y4121D01*
G01X1393Y4106D01*
G01X893Y3606D01*
G01X878Y3588D01*
G01X866Y3568D01*
G01X857Y3546D01*
G01X851Y3523D01*
G01X850Y3500D01*
G01X850Y1500D01*
G01X851Y1476D01*
G01X857Y1453D01*
G01X866Y1431D01*
G01X878Y1411D01*
G01X893Y1393D01*
G01X1393Y893D01*
G01X1411Y878D01*
G01X1431Y866D01*
G01X1453Y857D01*
G01X1476Y851D01*
G01X1500Y850D01*
G37*
G36*
G01X18015Y4600D02*
G01X18076Y4607D01*
G01X18135Y4623D01*
G01X18191Y4648D01*
G01X18242Y4681D01*
G01X18288Y4722D01*
G01X18327Y4769D01*
G01X18358Y4822D01*
G01X18381Y4879D01*
G01X18395Y4938D01*
G01X18400Y5000D01*
G01X18395Y5061D01*
G01X18381Y5120D01*
G01X18358Y5177D01*
G01X18327Y5230D01*
G01X18288Y5277D01*
G01X18242Y5318D01*
G01X18191Y5351D01*
G01X18150Y5369D01*
G01X18150Y6200D01*
G01X18148Y6223D01*
G01X18142Y6246D01*
G01X18133Y6268D01*
G01X18121Y6288D01*
G01X18106Y6306D01*
G01X17506Y6906D01*
G01X17488Y6921D01*
G01X17468Y6933D01*
G01X17446Y6942D01*
G01X17423Y6948D01*
G01X17400Y6950D01*
G01X9362Y6950D01*
G01X9150Y7162D01*
G01X9150Y7630D01*
G01X9191Y7648D01*
G01X9242Y7681D01*
G01X9288Y7722D01*
G01X9327Y7769D01*
G01X9358Y7822D01*
G01X9381Y7879D01*
G01X9395Y7938D01*
G01X9400Y8000D01*
G01X9395Y8061D01*
G01X9381Y8120D01*
G01X9358Y8177D01*
G01X9327Y8230D01*
G01X9288Y8277D01*
G01X9242Y8318D01*
G01X9191Y8351D01*
G01X9134Y8376D01*
G01X9076Y8392D01*
G01X9015Y8399D01*
G01X8953Y8397D01*
G01X8893Y8385D01*
G01X8836Y8365D01*
G01X8782Y8335D01*
G01X8733Y8298D01*
G01X8691Y8254D01*
G01X8656Y8204D01*
G01X8628Y8149D01*
G01X8610Y8091D01*
G01X8601Y8030D01*
G01X8601Y7969D01*
G01X8610Y7908D01*
G01X8628Y7850D01*
G01X8656Y7795D01*
G01X8691Y7745D01*
G01X8733Y7701D01*
G01X8782Y7664D01*
G01X8836Y7634D01*
G01X8850Y7630D01*
G01X8850Y7100D01*
G01X8851Y7076D01*
G01X8857Y7053D01*
G01X8866Y7031D01*
G01X8878Y7011D01*
G01X8893Y6993D01*
G01X9193Y6693D01*
G01X9211Y6678D01*
G01X9231Y6666D01*
G01X9253Y6657D01*
G01X9276Y6651D01*
G01X9300Y6650D01*
G01X17337Y6650D01*
G01X17850Y6137D01*
G01X17850Y5369D01*
G01X17836Y5365D01*
G01X17782Y5335D01*
G01X17733Y5298D01*
G01X17691Y5254D01*
G01X17656Y5204D01*
G01X17628Y5149D01*
G01X17610Y5091D01*
G01X17601Y5030D01*
G01X17601Y4969D01*
G01X17610Y4908D01*
G01X17628Y4850D01*
G01X17656Y4795D01*
G01X17691Y4745D01*
G01X17733Y4701D01*
G01X17782Y4664D01*
G01X17836Y4634D01*
G01X17893Y4614D01*
G01X17953Y4602D01*
G01X18015Y4600D01*
G37*
G36*
G01X17015Y4600D02*
G01X17076Y4607D01*
G01X17135Y4623D01*
G01X17191Y4648D01*
G01X17242Y4681D01*
G01X17288Y4722D01*
G01X17327Y4769D01*
G01X17358Y4822D01*
G01X17381Y4879D01*
G01X17395Y4938D01*
G01X17400Y5000D01*
G01X17395Y5061D01*
G01X17381Y5120D01*
G01X17358Y5177D01*
G01X17327Y5230D01*
G01X17288Y5277D01*
G01X17242Y5318D01*
G01X17191Y5351D01*
G01X17135Y5376D01*
G01X17076Y5392D01*
G01X17015Y5399D01*
G01X16953Y5397D01*
G01X16893Y5385D01*
G01X16836Y5365D01*
G01X16782Y5335D01*
G01X16733Y5298D01*
G01X16691Y5254D01*
G01X16656Y5204D01*
G01X16628Y5149D01*
G01X16610Y5091D01*
G01X16601Y5030D01*
G01X16601Y4969D01*
G01X16610Y4908D01*
G01X16628Y4850D01*
G01X16656Y4795D01*
G01X16691Y4745D01*
G01X16733Y4701D01*
G01X16782Y4664D01*
G01X16836Y4634D01*
G01X16893Y4614D01*
G01X16953Y4602D01*
G01X17015Y4600D01*
G37*
G36*
G01X16015Y4600D02*
G01X16076Y4607D01*
G01X16135Y4623D01*
G01X16191Y4648D01*
G01X16242Y4681D01*
G01X16288Y4722D01*
G01X16327Y4769D01*
G01X16358Y4822D01*
G01X16381Y4879D01*
G01X16395Y4938D01*
G01X16400Y5000D01*
G01X16395Y5061D01*
G01X16381Y5120D01*
G01X16358Y5177D01*
G01X16327Y5230D01*
G01X16288Y5277D01*
G01X16242Y5318D01*
G01X16191Y5351D01*
G01X16135Y5376D01*
G01X16076Y5392D01*
G01X16015Y5399D01*
G01X15953Y5397D01*
G01X15893Y5385D01*
G01X15836Y5365D01*
G01X15782Y5335D01*
G01X15733Y5298D01*
G01X15691Y5254D01*
G01X15656Y5204D01*
G01X15628Y5149D01*
G01X15610Y5091D01*
G01X15601Y5030D01*
G01X15601Y4969D01*
G01X15610Y4908D01*
G01X15628Y4850D01*
G01X15656Y4795D01*
G01X15691Y4745D01*
G01X15733Y4701D01*
G01X15782Y4664D01*
G01X15836Y4634D01*
G01X15893Y4614D01*
G01X15953Y4602D01*
G01X16015Y4600D01*
G37*
G36*
G01X15015Y4600D02*
G01X15076Y4607D01*
G01X15135Y4623D01*
G01X15191Y4648D01*
G01X15242Y4681D01*
G01X15288Y4722D01*
G01X15327Y4769D01*
G01X15358Y4822D01*
G01X15381Y4879D01*
G01X15395Y4938D01*
G01X15400Y5000D01*
G01X15395Y5061D01*
G01X15381Y5120D01*
G01X15358Y5177D01*
G01X15327Y5230D01*
G01X15288Y5277D01*
G01X15242Y5318D01*
G01X15191Y5351D01*
G01X15135Y5376D01*
G01X15076Y5392D01*
G01X15015Y5399D01*
G01X14953Y5397D01*
G01X14893Y5385D01*
G01X14836Y5365D01*
G01X14782Y5335D01*
G01X14733Y5298D01*
G01X14691Y5254D01*
G01X14656Y5204D01*
G01X14628Y5149D01*
G01X14610Y5091D01*
G01X14601Y5030D01*
G01X14601Y4969D01*
G01X14610Y4908D01*
G01X14628Y4850D01*
G01X14656Y4795D01*
G01X14691Y4745D01*
G01X14733Y4701D01*
G01X14782Y4664D01*
G01X14836Y4634D01*
G01X14893Y4614D01*
G01X14953Y4602D01*
G01X15015Y4600D01*
G37*
G36*
G01X14015Y4600D02*
G01X14076Y4607D01*
G01X14135Y4623D01*
G01X14191Y4648D01*
G01X14242Y4681D01*
G01X14288Y4722D01*
G01X14327Y4769D01*
G01X14358Y4822D01*
G01X14381Y4879D01*
G01X14395Y4938D01*
G01X14400Y5000D01*
G01X14395Y5061D01*
G01X14381Y5120D01*
G01X14358Y5177D01*
G01X14327Y5230D01*
G01X14288Y5277D01*
G01X14242Y5318D01*
G01X14191Y5351D01*
G01X14135Y5376D01*
G01X14076Y5392D01*
G01X14015Y5399D01*
G01X13953Y5397D01*
G01X13893Y5385D01*
G01X13836Y5365D01*
G01X13782Y5335D01*
G01X13733Y5298D01*
G01X13691Y5254D01*
G01X13656Y5204D01*
G01X13628Y5149D01*
G01X13610Y5091D01*
G01X13601Y5030D01*
G01X13601Y4969D01*
G01X13610Y4908D01*
G01X13628Y4850D01*
G01X13656Y4795D01*
G01X13691Y4745D01*
G01X13733Y4701D01*
G01X13782Y4664D01*
G01X13836Y4634D01*
G01X13893Y4614D01*
G01X13953Y4602D01*
G01X14015Y4600D01*
G37*
G36*
G01X12015Y4600D02*
G01X12076Y4607D01*
G01X12135Y4623D01*
G01X12191Y4648D01*
G01X12242Y4681D01*
G01X12288Y4722D01*
G01X12327Y4769D01*
G01X12358Y4822D01*
G01X12381Y4879D01*
G01X12395Y4938D01*
G01X12400Y5000D01*
G01X12395Y5061D01*
G01X12381Y5120D01*
G01X12358Y5177D01*
G01X12327Y5230D01*
G01X12288Y5277D01*
G01X12242Y5318D01*
G01X12191Y5351D01*
G01X12150Y5369D01*
G01X12150Y5500D01*
G01X12148Y5523D01*
G01X12142Y5546D01*
G01X12133Y5568D01*
G01X12121Y5588D01*
G01X12106Y5606D01*
G01X11606Y6106D01*
G01X11588Y6121D01*
G01X11568Y6133D01*
G01X11546Y6142D01*
G01X11523Y6148D01*
G01X11500Y6150D01*
G01X7662Y6150D01*
G01X7150Y6662D01*
G01X7150Y7630D01*
G01X7191Y7648D01*
G01X7242Y7681D01*
G01X7288Y7722D01*
G01X7327Y7769D01*
G01X7358Y7822D01*
G01X7381Y7879D01*
G01X7395Y7938D01*
G01X7400Y8000D01*
G01X7395Y8061D01*
G01X7381Y8120D01*
G01X7358Y8177D01*
G01X7327Y8230D01*
G01X7288Y8277D01*
G01X7242Y8318D01*
G01X7191Y8351D01*
G01X7134Y8376D01*
G01X7076Y8392D01*
G01X7015Y8399D01*
G01X6953Y8397D01*
G01X6893Y8385D01*
G01X6836Y8365D01*
G01X6782Y8335D01*
G01X6733Y8298D01*
G01X6691Y8254D01*
G01X6656Y8204D01*
G01X6628Y8149D01*
G01X6610Y8091D01*
G01X6601Y8030D01*
G01X6601Y7969D01*
G01X6610Y7908D01*
G01X6628Y7850D01*
G01X6656Y7795D01*
G01X6691Y7745D01*
G01X6733Y7701D01*
G01X6782Y7664D01*
G01X6836Y7634D01*
G01X6850Y7630D01*
G01X6850Y6600D01*
G01X6851Y6576D01*
G01X6857Y6553D01*
G01X6866Y6531D01*
G01X6878Y6511D01*
G01X6893Y6493D01*
G01X7493Y5893D01*
G01X7511Y5878D01*
G01X7531Y5866D01*
G01X7553Y5857D01*
G01X7576Y5851D01*
G01X7600Y5850D01*
G01X11437Y5850D01*
G01X11850Y5437D01*
G01X11850Y5369D01*
G01X11836Y5365D01*
G01X11782Y5335D01*
G01X11733Y5298D01*
G01X11691Y5254D01*
G01X11656Y5204D01*
G01X11628Y5149D01*
G01X11610Y5091D01*
G01X11601Y5030D01*
G01X11601Y4969D01*
G01X11610Y4908D01*
G01X11628Y4850D01*
G01X11656Y4795D01*
G01X11691Y4745D01*
G01X11733Y4701D01*
G01X11782Y4664D01*
G01X11836Y4634D01*
G01X11893Y4614D01*
G01X11953Y4602D01*
G01X12015Y4600D01*
G37*
G36*
G01X11015Y4600D02*
G01X11076Y4607D01*
G01X11134Y4623D01*
G01X11191Y4648D01*
G01X11242Y4681D01*
G01X11288Y4722D01*
G01X11327Y4769D01*
G01X11358Y4822D01*
G01X11381Y4879D01*
G01X11395Y4938D01*
G01X11400Y5000D01*
G01X11395Y5061D01*
G01X11381Y5120D01*
G01X11358Y5177D01*
G01X11327Y5230D01*
G01X11288Y5277D01*
G01X11242Y5318D01*
G01X11191Y5351D01*
G01X11134Y5376D01*
G01X11076Y5392D01*
G01X11015Y5399D01*
G01X10953Y5397D01*
G01X10893Y5385D01*
G01X10836Y5365D01*
G01X10782Y5335D01*
G01X10733Y5298D01*
G01X10691Y5254D01*
G01X10656Y5204D01*
G01X10628Y5149D01*
G01X10610Y5091D01*
G01X10601Y5030D01*
G01X10601Y4969D01*
G01X10610Y4908D01*
G01X10628Y4850D01*
G01X10656Y4795D01*
G01X10691Y4745D01*
G01X10733Y4701D01*
G01X10782Y4664D01*
G01X10836Y4634D01*
G01X10893Y4614D01*
G01X10953Y4602D01*
G01X11015Y4600D01*
G37*
G36*
G01X9015Y4600D02*
G01X9076Y4607D01*
G01X9134Y4623D01*
G01X9191Y4648D01*
G01X9242Y4681D01*
G01X9288Y4722D01*
G01X9327Y4769D01*
G01X9358Y4822D01*
G01X9381Y4879D01*
G01X9395Y4938D01*
G01X9400Y5000D01*
G01X9395Y5061D01*
G01X9381Y5120D01*
G01X9358Y5177D01*
G01X9327Y5230D01*
G01X9288Y5277D01*
G01X9242Y5318D01*
G01X9191Y5351D01*
G01X9134Y5376D01*
G01X9076Y5392D01*
G01X9015Y5399D01*
G01X8953Y5397D01*
G01X8893Y5385D01*
G01X8836Y5365D01*
G01X8782Y5335D01*
G01X8733Y5298D01*
G01X8691Y5254D01*
G01X8656Y5204D01*
G01X8628Y5149D01*
G01X8610Y5091D01*
G01X8601Y5030D01*
G01X8601Y4969D01*
G01X8610Y4908D01*
G01X8628Y4850D01*
G01X8656Y4795D01*
G01X8691Y4745D01*
G01X8733Y4701D01*
G01X8782Y4664D01*
G01X8836Y4634D01*
G01X8893Y4614D01*
G01X8953Y4602D01*
G01X9015Y4600D01*
G37*
G36*
G01X8015Y4600D02*
G01X8076Y4607D01*
G01X8134Y4623D01*
G01X8191Y4648D01*
G01X8242Y4681D01*
G01X8288Y4722D01*
G01X8327Y4769D01*
G01X8358Y4822D01*
G01X8381Y4879D01*
G01X8395Y4938D01*
G01X8400Y5000D01*
G01X8395Y5061D01*
G01X8381Y5120D01*
G01X8358Y5177D01*
G01X8327Y5230D01*
G01X8288Y5277D01*
G01X8242Y5318D01*
G01X8191Y5351D01*
G01X8134Y5376D01*
G01X8076Y5392D01*
G01X8015Y5399D01*
G01X7953Y5397D01*
G01X7893Y5385D01*
G01X7836Y5365D01*
G01X7782Y5335D01*
G01X7733Y5298D01*
G01X7691Y5254D01*
G01X7656Y5204D01*
G01X7628Y5149D01*
G01X7610Y5091D01*
G01X7601Y5030D01*
G01X7601Y4969D01*
G01X7610Y4908D01*
G01X7628Y4850D01*
G01X7656Y4795D01*
G01X7691Y4745D01*
G01X7733Y4701D01*
G01X7782Y4664D01*
G01X7836Y4634D01*
G01X7893Y4614D01*
G01X7953Y4602D01*
G01X8015Y4600D01*
G37*
G36*
G01X6015Y4600D02*
G01X6076Y4607D01*
G01X6134Y4623D01*
G01X6191Y4648D01*
G01X6242Y4681D01*
G01X6288Y4722D01*
G01X6327Y4769D01*
G01X6358Y4822D01*
G01X6381Y4879D01*
G01X6395Y4938D01*
G01X6400Y5000D01*
G01X6395Y5061D01*
G01X6381Y5120D01*
G01X6358Y5177D01*
G01X6327Y5230D01*
G01X6288Y5277D01*
G01X6242Y5318D01*
G01X6191Y5351D01*
G01X6134Y5376D01*
G01X6076Y5392D01*
G01X6015Y5399D01*
G01X5953Y5397D01*
G01X5893Y5385D01*
G01X5844Y5367D01*
G01X4150Y7062D01*
G01X4150Y7630D01*
G01X4191Y7648D01*
G01X4242Y7681D01*
G01X4288Y7722D01*
G01X4327Y7769D01*
G01X4358Y7822D01*
G01X4381Y7879D01*
G01X4395Y7938D01*
G01X4400Y8000D01*
G01X4395Y8061D01*
G01X4381Y8120D01*
G01X4358Y8177D01*
G01X4327Y8230D01*
G01X4288Y8277D01*
G01X4242Y8318D01*
G01X4191Y8351D01*
G01X4134Y8376D01*
G01X4076Y8392D01*
G01X4015Y8399D01*
G01X3953Y8397D01*
G01X3893Y8385D01*
G01X3836Y8365D01*
G01X3782Y8335D01*
G01X3733Y8298D01*
G01X3691Y8254D01*
G01X3656Y8204D01*
G01X3628Y8149D01*
G01X3610Y8091D01*
G01X3601Y8030D01*
G01X3601Y7969D01*
G01X3610Y7908D01*
G01X3628Y7850D01*
G01X3656Y7795D01*
G01X3691Y7745D01*
G01X3733Y7701D01*
G01X3782Y7664D01*
G01X3836Y7634D01*
G01X3850Y7630D01*
G01X3850Y7000D01*
G01X3851Y6976D01*
G01X3857Y6953D01*
G01X3866Y6931D01*
G01X3878Y6911D01*
G01X3893Y6893D01*
G01X5632Y5155D01*
G01X5628Y5149D01*
G01X5610Y5091D01*
G01X5601Y5030D01*
G01X5601Y4969D01*
G01X5610Y4908D01*
G01X5628Y4850D01*
G01X5656Y4795D01*
G01X5691Y4745D01*
G01X5733Y4701D01*
G01X5782Y4664D01*
G01X5836Y4634D01*
G01X5893Y4614D01*
G01X5953Y4602D01*
G01X6015Y4600D01*
G37*
G36*
G01X3015Y4600D02*
G01X3076Y4607D01*
G01X3134Y4623D01*
G01X3191Y4648D01*
G01X3242Y4681D01*
G01X3288Y4722D01*
G01X3327Y4769D01*
G01X3358Y4822D01*
G01X3381Y4879D01*
G01X3395Y4938D01*
G01X3400Y5000D01*
G01X3395Y5061D01*
G01X3381Y5120D01*
G01X3358Y5177D01*
G01X3327Y5230D01*
G01X3288Y5277D01*
G01X3242Y5318D01*
G01X3191Y5351D01*
G01X3134Y5376D01*
G01X3076Y5392D01*
G01X3015Y5399D01*
G01X2953Y5397D01*
G01X2893Y5385D01*
G01X2836Y5365D01*
G01X2782Y5335D01*
G01X2733Y5298D01*
G01X2691Y5254D01*
G01X2656Y5204D01*
G01X2628Y5149D01*
G01X2610Y5091D01*
G01X2601Y5030D01*
G01X2601Y4969D01*
G01X2610Y4908D01*
G01X2628Y4850D01*
G01X2656Y4795D01*
G01X2691Y4745D01*
G01X2733Y4701D01*
G01X2782Y4664D01*
G01X2836Y4634D01*
G01X2893Y4614D01*
G01X2953Y4602D01*
G01X3015Y4600D01*
G37*
G36*
G01X2015Y4600D02*
G01X2076Y4607D01*
G01X2134Y4623D01*
G01X2191Y4648D01*
G01X2242Y4681D01*
G01X2288Y4722D01*
G01X2327Y4769D01*
G01X2358Y4822D01*
G01X2381Y4879D01*
G01X2395Y4938D01*
G01X2400Y5000D01*
G01X2395Y5061D01*
G01X2381Y5120D01*
G01X2358Y5177D01*
G01X2327Y5230D01*
G01X2288Y5277D01*
G01X2242Y5318D01*
G01X2191Y5351D01*
G01X2134Y5376D01*
G01X2076Y5392D01*
G01X2015Y5399D01*
G01X1953Y5397D01*
G01X1893Y5385D01*
G01X1836Y5365D01*
G01X1782Y5335D01*
G01X1733Y5298D01*
G01X1691Y5254D01*
G01X1656Y5204D01*
G01X1628Y5149D01*
G01X1610Y5091D01*
G01X1601Y5030D01*
G01X1601Y4969D01*
G01X1610Y4908D01*
G01X1628Y4850D01*
G01X1656Y4795D01*
G01X1691Y4745D01*
G01X1733Y4701D01*
G01X1782Y4664D01*
G01X1836Y4634D01*
G01X1893Y4614D01*
G01X1953Y4602D01*
G01X2015Y4600D01*
G37*

%LPD*%
G54D10*
G01X3000Y8000D02*
G01X3000Y6000D01*
G01X4000Y5000D01*
G01X5000Y5000D02*
G01X5000Y4400D01*
G01X5400Y4000D01*
G01X9700Y4000D01*
G01X10000Y4300D01*
G01X10000Y5000D01*
G01X2000Y8000D02*
G01X2000Y7000D01*
G01X4000Y8000D02*
G01X4000Y7000D01*
G01X6000Y5000D01*
G01X6000Y2000D02*
G01X6000Y2600D01*
G01X6400Y3000D01*
G01X10700Y3000D01*
G01X11000Y2700D01*
G01X11000Y2000D01*
G01X18000Y2000D02*
G01X18000Y3000D01*
G01X11000Y5000D02*
G01X11000Y4000D01*
G01X12000Y2000D02*
G01X12000Y2900D01*
G01X12500Y3400D01*
G01X16600Y3400D01*
G01X17000Y3000D01*
G01X17000Y2000D01*
G01X16000Y2000D02*
G01X16000Y2700D01*
G01X15000Y2000D02*
G01X15000Y1400D01*
G01X14600Y1000D01*
G01X1500Y1000D01*
G01X1000Y1500D01*
G01X1000Y3500D01*
G01X1500Y4000D01*
G01X3600Y4000D01*
G01X4000Y4400D01*
G01X4000Y5000D01*
G01X6000Y8000D02*
G01X6000Y7100D01*
G01X12000Y5000D02*
G01X12000Y5500D01*
G01X11500Y6000D01*
G01X7600Y6000D01*
G01X7000Y6600D01*
G01X7000Y8000D01*
G01X18000Y5000D02*
G01X18000Y6200D01*
G01X17400Y6800D01*
G01X9300Y6800D01*
G01X9000Y7100D01*
G01X9000Y8000D01*
G54D11*
G01X2000Y5000D03*
G01X3000Y5000D03*
G01X4000Y5000D03*
G01X5000Y5000D03*
G01X6000Y5000D03*
G01X2000Y2000D03*
G01X3000Y2000D03*
G01X4000Y2000D03*
G01X5000Y2000D03*
G01X6000Y2000D03*
G01X8000Y5000D03*
G01X9000Y5000D03*
G01X10000Y5000D03*
G01X11000Y5000D03*
G01X12000Y5000D03*
G01X8000Y2000D03*
G01X11000Y2000D03*
G01X12000Y2000D03*
G01X14000Y5000D03*
G01X14000Y5000D03*
G01X15000Y5000D03*
G01X16000Y5000D03*
G01X17000Y5000D03*
G01X18000Y5000D03*
G01X14000Y2000D03*
G01X15000Y2000D03*
G01X16000Y2000D03*
G01X17000Y2000D03*
G01X18000Y2000D03*
G01X2000Y8000D03*
G01X3000Y8000D03*
G01X4000Y8000D03*
G01X6000Y8000D03*
G01X10000Y2000D03*
G01X9000Y2000D03*
G01X5000Y8000D03*
G01X7000Y8000D03*
G01X8000Y8000D03*
G01X9000Y8000D03*
G01X2000Y5000D03*
G01X3000Y5000D03*
G01X4000Y5000D03*
G01X5000Y5000D03*
G01X6000Y5000D03*
G01X2000Y2000D03*
G01X3000Y2000D03*
G01X4000Y2000D03*
G01X5000Y2000D03*
G01X6000Y2000D03*
G01X8000Y5000D03*
G01X9000Y5000D03*
G01X10000Y5000D03*
G01X11000Y5000D03*
G01X12000Y5000D03*
G01X8000Y2000D03*
G01X11000Y2000D03*
G01X12000Y2000D03*
G01X14000Y5000D03*
G01X14000Y5000D03*
G01X15000Y5000D03*
G01X16000Y5000D03*
G01X17000Y5000D03*
G01X18000Y5000D03*
G01X14000Y2000D03*
G01X15000Y2000D03*
G01X16000Y2000D03*
G01X17000Y2000D03*
G01X18000Y2000D03*
G01X2000Y8000D03*
G01X3000Y8000D03*
G01X4000Y8000D03*
G01X6000Y8000D03*
G01X10000Y2000D03*
G01X9000Y2000D03*
G01X5000Y8000D03*
G01X7000Y8000D03*
G01X8000Y8000D03*
G01X9000Y8000D03*

M00*
M02*