;PTH Drill file created by EasyEDA 
M48
;Holesize 1 = 0.036 INCH
T01C0.036
INCH,00.0000
%
G05
G90
T01
X002000Y005000
X003000Y005000
X004000Y005000
X005000Y005000
X006000Y005000
X002000Y002000
X003000Y002000
X004000Y002000
X005000Y002000
X006000Y002000
X008000Y005000
X009000Y005000
X010000Y005000
X011000Y005000
X012000Y005000
X008000Y002000
X011000Y002000
X012000Y002000
X014000Y005000
X014000Y005000
X015000Y005000
X016000Y005000
X017000Y005000
X018000Y005000
X014000Y002000
X015000Y002000
X016000Y002000
X017000Y002000
X018000Y002000
X002000Y008000
X003000Y008000
X004000Y008000
X006000Y008000
X010000Y002000
X009000Y002000
X005000Y008000
X007000Y008000
X008000Y008000
X009000Y008000
M30
