G04 ---------------------------- Layer name :TOP SILK LAYER*
G04 easyEDA 0.1*
G04 Scale: 100 percent, Rotated: No, Reflected: No *
G04 Dimensions in inches *
G04 leading zeros omitted , absolute positions ,2 integer and 4 * 
%FSLAX24Y24*%
%MOIN*%
G90*
G70D02*

%ADD11C,0.008000*%

%LPD*%
G54D11*
G01X3799Y6734D02*
G01X4181Y6880D01*
G01X3799Y7026D02*
G01X4181Y6880D01*
G01X3853Y7400D02*
G01X3817Y7363D01*
G01X3799Y7309D01*
G01X3799Y7236D01*
G01X3817Y7182D01*
G01X3853Y7146D01*
G01X3890Y7146D01*
G01X3926Y7163D01*
G01X3944Y7182D01*
G01X3962Y7219D01*
G01X3999Y7328D01*
G01X4017Y7363D01*
G01X4035Y7382D01*
G01X4072Y7400D01*
G01X4126Y7400D01*
G01X4162Y7363D01*
G01X4181Y7309D01*
G01X4181Y7236D01*
G01X4162Y7182D01*
G01X4126Y7146D01*
G01X2800Y6788D02*
G01X3182Y6788D01*
G01X2800Y6788D02*
G01X2800Y7024D01*
G01X2982Y6788D02*
G01X2982Y6933D01*
G01X3182Y6788D02*
G01X3182Y7024D01*
G01X2800Y7144D02*
G01X3182Y7144D01*
G01X2800Y7144D02*
G01X3182Y7399D01*
G01X2800Y7399D02*
G01X3182Y7399D01*
G01X1890Y6751D02*
G01X1853Y6732D01*
G01X1817Y6696D01*
G01X1799Y6659D01*
G01X1799Y6586D01*
G01X1817Y6551D01*
G01X1853Y6513D01*
G01X1890Y6496D01*
G01X1944Y6478D01*
G01X2035Y6478D01*
G01X2090Y6496D01*
G01X2126Y6513D01*
G01X2162Y6551D01*
G01X2181Y6586D01*
G01X2181Y6659D01*
G01X2162Y6696D01*
G01X2126Y6732D01*
G01X2090Y6751D01*
G01X2035Y6751D01*
G01X2035Y6659D02*
G01X2035Y6751D01*
G01X1799Y6871D02*
G01X2181Y6871D01*
G01X1799Y6871D02*
G01X2181Y7125D01*
G01X1799Y7125D02*
G01X2181Y7125D01*
G01X1799Y7244D02*
G01X2181Y7244D01*
G01X1799Y7244D02*
G01X1799Y7373D01*
G01X1817Y7426D01*
G01X1853Y7463D01*
G01X1890Y7482D01*
G01X1944Y7500D01*
G01X2035Y7500D01*
G01X2090Y7482D01*
G01X2126Y7463D01*
G01X2162Y7426D01*
G01X2181Y7373D01*
G01X2181Y7244D01*
G01X4800Y6049D02*
G01X5182Y6049D01*
G01X4800Y6049D02*
G01X4800Y6213D01*
G01X4817Y6267D01*
G01X4836Y6285D01*
G01X4873Y6304D01*
G01X4909Y6304D01*
G01X4944Y6285D01*
G01X4963Y6267D01*
G01X4982Y6213D01*
G01X4982Y6049D02*
G01X4982Y6213D01*
G01X5000Y6267D01*
G01X5017Y6285D01*
G01X5053Y6304D01*
G01X5109Y6304D01*
G01X5144Y6285D01*
G01X5163Y6267D01*
G01X5182Y6213D01*
G01X5182Y6049D01*
G01X4800Y6551D02*
G01X5182Y6551D01*
G01X4800Y6424D02*
G01X4800Y6678D01*
G01X4800Y6798D02*
G01X5182Y6798D01*
G01X4800Y6798D02*
G01X5182Y7053D01*
G01X4800Y7053D02*
G01X5182Y7053D01*
G01X4853Y7336D02*
G01X5182Y7336D01*
G01X5017Y7173D02*
G01X5017Y7500D01*
G01X5800Y6049D02*
G01X6182Y6049D01*
G01X5800Y6049D02*
G01X5800Y6213D01*
G01X5817Y6267D01*
G01X5836Y6285D01*
G01X5873Y6304D01*
G01X5909Y6304D01*
G01X5944Y6285D01*
G01X5963Y6267D01*
G01X5982Y6213D01*
G01X5982Y6049D02*
G01X5982Y6213D01*
G01X6000Y6267D01*
G01X6017Y6285D01*
G01X6053Y6304D01*
G01X6109Y6304D01*
G01X6144Y6285D01*
G01X6163Y6267D01*
G01X6182Y6213D01*
G01X6182Y6049D01*
G01X5800Y6551D02*
G01X6182Y6551D01*
G01X5800Y6424D02*
G01X5800Y6678D01*
G01X5800Y6798D02*
G01X6182Y6798D01*
G01X5800Y6798D02*
G01X6182Y7053D01*
G01X5800Y7053D02*
G01X6182Y7053D01*
G01X6017Y7173D02*
G01X6017Y7500D01*
G01X7926Y6514D02*
G01X8108Y6514D01*
G01X8162Y6532D01*
G01X8181Y6569D01*
G01X8181Y6623D01*
G01X8162Y6659D01*
G01X8108Y6714D01*
G01X7926Y6714D02*
G01X8181Y6714D01*
G01X7872Y6834D02*
G01X7853Y6870D01*
G01X7799Y6925D01*
G01X8181Y6925D01*
G01X7890Y7063D02*
G01X7872Y7063D01*
G01X7835Y7081D01*
G01X7817Y7099D01*
G01X7799Y7136D01*
G01X7799Y7209D01*
G01X7817Y7245D01*
G01X7835Y7263D01*
G01X7872Y7281D01*
G01X7908Y7281D01*
G01X7944Y7263D01*
G01X7999Y7227D01*
G01X8181Y7045D01*
G01X8181Y7299D01*
G01X8926Y6396D02*
G01X9108Y6396D01*
G01X9162Y6413D01*
G01X9181Y6451D01*
G01X9181Y6505D01*
G01X9162Y6540D01*
G01X9108Y6596D01*
G01X8926Y6596D02*
G01X9181Y6596D01*
G01X8799Y6861D02*
G01X9181Y6715D01*
G01X8799Y6861D02*
G01X9181Y7007D01*
G01X9053Y6771D02*
G01X9053Y6951D01*
G01X8799Y7309D02*
G01X9053Y7126D01*
G01X9053Y7400D01*
G01X8799Y7309D02*
G01X9181Y7309D01*
G01X6817Y6303D02*
G01X7199Y6303D01*
G01X6817Y6303D02*
G01X6817Y6467D01*
G01X6835Y6521D01*
G01X6853Y6540D01*
G01X6890Y6559D01*
G01X6944Y6559D01*
G01X6980Y6540D01*
G01X6999Y6521D01*
G01X7017Y6467D01*
G01X7017Y6303D01*
G01X6817Y6678D02*
G01X6835Y6696D01*
G01X6817Y6715D01*
G01X6799Y6696D01*
G01X6817Y6678D01*
G01X6944Y6696D02*
G01X7199Y6696D01*
G01X6817Y7053D02*
G01X6817Y6871D01*
G01X6980Y6853D01*
G01X6962Y6871D01*
G01X6944Y6926D01*
G01X6944Y6980D01*
G01X6962Y7034D01*
G01X6999Y7071D01*
G01X7053Y7088D01*
G01X7090Y7088D01*
G01X7144Y7071D01*
G01X7180Y7034D01*
G01X7199Y6980D01*
G01X7199Y6926D01*
G01X7180Y6871D01*
G01X7162Y6853D01*
G01X7126Y6834D01*
G01X6817Y7209D02*
G01X7199Y7355D01*
G01X6817Y7500D02*
G01X7199Y7355D01*

M00*
M02*