G04 ---------------------------- Layer name :BOTTOM LAYER*
G04 easyEDA 0.1*
G04 Scale: 100 percent, Rotated: No, Reflected: No *
G04 Dimensions in inches *
G04 leading zeros omitted , absolute positions ,2 integer and 4 * 
%FSLAX24Y24*%
%MOIN*%
G90*
G70D02*

%ADD10C,0.010000*%
%ADD11C,0.060000*%

%LPD*%
G54D10*
G01X9000Y2000D02*
G01X9000Y1300D01*
G01X9700Y600D01*
G01X11600Y600D01*
G01X13000Y2000D01*
G01X13000Y5700D01*
G01X12300Y6400D01*
G01X8300Y6400D01*
G01X8000Y6700D01*
G01X8000Y8000D01*
G01X10000Y2000D02*
G01X5000Y7000D01*
G01X5000Y8000D01*
G54D11*
G01X2000Y5000D03*
G01X3000Y5000D03*
G01X4000Y5000D03*
G01X5000Y5000D03*
G01X6000Y5000D03*
G01X2000Y2000D03*
G01X3000Y2000D03*
G01X4000Y2000D03*
G01X5000Y2000D03*
G01X6000Y2000D03*
G01X8000Y5000D03*
G01X9000Y5000D03*
G01X10000Y5000D03*
G01X11000Y5000D03*
G01X12000Y5000D03*
G01X8000Y2000D03*
G01X11000Y2000D03*
G01X12000Y2000D03*
G01X14000Y5000D03*
G01X14000Y5000D03*
G01X15000Y5000D03*
G01X16000Y5000D03*
G01X17000Y5000D03*
G01X18000Y5000D03*
G01X14000Y2000D03*
G01X15000Y2000D03*
G01X16000Y2000D03*
G01X17000Y2000D03*
G01X18000Y2000D03*
G01X2000Y8000D03*
G01X3000Y8000D03*
G01X4000Y8000D03*
G01X6000Y8000D03*
G01X10000Y2000D03*
G01X9000Y2000D03*
G01X5000Y8000D03*
G01X7000Y8000D03*
G01X8000Y8000D03*
G01X9000Y8000D03*
G01X2000Y5000D03*
G01X3000Y5000D03*
G01X4000Y5000D03*
G01X5000Y5000D03*
G01X6000Y5000D03*
G01X2000Y2000D03*
G01X3000Y2000D03*
G01X4000Y2000D03*
G01X5000Y2000D03*
G01X6000Y2000D03*
G01X8000Y5000D03*
G01X9000Y5000D03*
G01X10000Y5000D03*
G01X11000Y5000D03*
G01X12000Y5000D03*
G01X8000Y2000D03*
G01X11000Y2000D03*
G01X12000Y2000D03*
G01X14000Y5000D03*
G01X14000Y5000D03*
G01X15000Y5000D03*
G01X16000Y5000D03*
G01X17000Y5000D03*
G01X18000Y5000D03*
G01X14000Y2000D03*
G01X15000Y2000D03*
G01X16000Y2000D03*
G01X17000Y2000D03*
G01X18000Y2000D03*
G01X2000Y8000D03*
G01X3000Y8000D03*
G01X4000Y8000D03*
G01X6000Y8000D03*
G01X10000Y2000D03*
G01X9000Y2000D03*
G01X5000Y8000D03*
G01X7000Y8000D03*
G01X8000Y8000D03*
G01X9000Y8000D03*

M00*
M02*