G04 ---------------------------- Layer name :BOTTOM LAYER*
G04 easyEDA 0.1*
G04 Scale: 100 percent, Rotated: No, Reflected: No *
G04 Dimensions in inches *
G04 leading zeros omitted , absolute positions ,2 integer and 4 * 
%FSLAX24Y24*%
%MOIN*%
G90*
G70D02*

%ADD10C,0.010000*%
%ADD11C,0.060000*%

%LPD*%
G36*
G01X6Y-65D02*
G01X6Y267D01*
G01X10Y237D01*
G01X28Y178D01*
G01X56Y123D01*
G01X91Y73D01*
G01X133Y29D01*
G01X182Y-7D01*
G01X236Y-36D01*
G01X293Y-57D01*
G01X333Y-65D01*
G01X6Y-65D01*
G37*

%LPC*%

%LPD*%
G36*
G01X471Y-65D02*
G01X476Y-64D01*
G01X534Y-48D01*
G01X591Y-23D01*
G01X642Y9D01*
G01X688Y51D01*
G01X727Y98D01*
G01X758Y151D01*
G01X781Y207D01*
G01X793Y259D01*
G01X797Y237D01*
G01X815Y178D01*
G01X842Y123D01*
G01X878Y73D01*
G01X920Y29D01*
G01X969Y-7D01*
G01X1022Y-36D01*
G01X1080Y-57D01*
G01X1120Y-65D01*
G01X471Y-65D01*
G37*

%LPC*%

%LPD*%
G36*
G01X1257Y-65D02*
G01X1262Y-64D01*
G01X1321Y-48D01*
G01X1377Y-23D01*
G01X1428Y9D01*
G01X1475Y51D01*
G01X1513Y98D01*
G01X1544Y151D01*
G01X1567Y207D01*
G01X1581Y263D01*
G01X1585Y237D01*
G01X1603Y178D01*
G01X1631Y123D01*
G01X1666Y73D01*
G01X1708Y29D01*
G01X1757Y-7D01*
G01X1811Y-36D01*
G01X1868Y-57D01*
G01X1908Y-65D01*
G01X1257Y-65D01*
G37*

%LPC*%

%LPD*%
G36*
G01X2046Y-65D02*
G01X2051Y-64D01*
G01X2109Y-48D01*
G01X2166Y-23D01*
G01X2217Y9D01*
G01X2263Y51D01*
G01X2302Y98D01*
G01X2333Y151D01*
G01X2356Y207D01*
G01X2370Y267D01*
G01X2375Y328D01*
G01X2370Y389D01*
G01X2356Y448D01*
G01X2333Y505D01*
G01X2302Y558D01*
G01X2263Y605D01*
G01X2217Y646D01*
G01X2166Y680D01*
G01X2109Y705D01*
G01X2051Y721D01*
G01X1990Y727D01*
G01X1928Y725D01*
G01X1868Y713D01*
G01X1811Y693D01*
G01X1757Y663D01*
G01X1708Y627D01*
G01X1666Y582D01*
G01X1631Y532D01*
G01X1603Y477D01*
G01X1585Y419D01*
G01X1581Y392D01*
G01X1567Y448D01*
G01X1544Y505D01*
G01X1513Y558D01*
G01X1475Y605D01*
G01X1428Y646D01*
G01X1377Y680D01*
G01X1321Y705D01*
G01X1262Y721D01*
G01X1202Y727D01*
G01X1140Y725D01*
G01X1080Y713D01*
G01X1022Y693D01*
G01X969Y663D01*
G01X920Y627D01*
G01X878Y582D01*
G01X842Y532D01*
G01X815Y477D01*
G01X797Y419D01*
G01X793Y397D01*
G01X781Y448D01*
G01X758Y505D01*
G01X727Y558D01*
G01X688Y605D01*
G01X642Y646D01*
G01X591Y680D01*
G01X534Y705D01*
G01X476Y721D01*
G01X415Y727D01*
G01X353Y725D01*
G01X293Y713D01*
G01X236Y693D01*
G01X182Y663D01*
G01X133Y627D01*
G01X91Y582D01*
G01X56Y532D01*
G01X28Y477D01*
G01X10Y419D01*
G01X6Y391D01*
G01X6Y2038D01*
G01X10Y2008D01*
G01X28Y1950D01*
G01X56Y1895D01*
G01X91Y1845D01*
G01X133Y1801D01*
G01X182Y1764D01*
G01X236Y1734D01*
G01X293Y1714D01*
G01X353Y1702D01*
G01X415Y1700D01*
G01X476Y1707D01*
G01X534Y1723D01*
G01X591Y1748D01*
G01X642Y1781D01*
G01X688Y1822D01*
G01X727Y1869D01*
G01X758Y1922D01*
G01X781Y1979D01*
G01X793Y2031D01*
G01X797Y2008D01*
G01X815Y1950D01*
G01X842Y1895D01*
G01X878Y1845D01*
G01X920Y1801D01*
G01X969Y1764D01*
G01X1022Y1734D01*
G01X1080Y1714D01*
G01X1140Y1702D01*
G01X1202Y1700D01*
G01X1262Y1707D01*
G01X1321Y1723D01*
G01X1377Y1748D01*
G01X1428Y1781D01*
G01X1475Y1822D01*
G01X1513Y1869D01*
G01X1544Y1922D01*
G01X1567Y1979D01*
G01X1581Y2035D01*
G01X1585Y2008D01*
G01X1603Y1950D01*
G01X1631Y1895D01*
G01X1666Y1845D01*
G01X1708Y1801D01*
G01X1757Y1764D01*
G01X1811Y1734D01*
G01X1868Y1714D01*
G01X1928Y1702D01*
G01X1990Y1700D01*
G01X2051Y1707D01*
G01X2109Y1723D01*
G01X2166Y1748D01*
G01X2217Y1781D01*
G01X2263Y1822D01*
G01X2302Y1869D01*
G01X2333Y1922D01*
G01X2356Y1979D01*
G01X2370Y2038D01*
G01X2375Y2100D01*
G01X2370Y2161D01*
G01X2356Y2220D01*
G01X2333Y2277D01*
G01X2302Y2330D01*
G01X2263Y2377D01*
G01X2217Y2418D01*
G01X2166Y2451D01*
G01X2109Y2476D01*
G01X2051Y2492D01*
G01X2041Y2493D01*
G01X3879Y2493D01*
G01X3836Y2485D01*
G01X3778Y2465D01*
G01X3725Y2435D01*
G01X3676Y2398D01*
G01X3634Y2354D01*
G01X3598Y2304D01*
G01X3571Y2249D01*
G01X3553Y2191D01*
G01X3543Y2130D01*
G01X3543Y2069D01*
G01X3553Y2008D01*
G01X3571Y1950D01*
G01X3598Y1895D01*
G01X3634Y1845D01*
G01X3676Y1801D01*
G01X3725Y1764D01*
G01X3778Y1734D01*
G01X3836Y1714D01*
G01X3896Y1702D01*
G01X3958Y1700D01*
G01X4018Y1707D01*
G01X4077Y1723D01*
G01X4133Y1748D01*
G01X4184Y1781D01*
G01X4231Y1822D01*
G01X4269Y1869D01*
G01X4301Y1922D01*
G01X4323Y1979D01*
G01X4337Y2034D01*
G01X4341Y2009D01*
G01X4359Y1951D01*
G01X4386Y1896D01*
G01X4422Y1846D01*
G01X4464Y1802D01*
G01X4513Y1765D01*
G01X4566Y1736D01*
G01X4624Y1715D01*
G01X4684Y1703D01*
G01X4746Y1701D01*
G01X4806Y1708D01*
G01X4865Y1724D01*
G01X4921Y1749D01*
G01X4972Y1782D01*
G01X5018Y1823D01*
G01X5057Y1871D01*
G01X5088Y1923D01*
G01X5111Y1980D01*
G01X5123Y2031D01*
G01X5127Y2009D01*
G01X5145Y1951D01*
G01X5172Y1896D01*
G01X5208Y1846D01*
G01X5250Y1802D01*
G01X5299Y1765D01*
G01X5352Y1736D01*
G01X5410Y1715D01*
G01X5470Y1703D01*
G01X5532Y1701D01*
G01X5592Y1708D01*
G01X5651Y1724D01*
G01X5707Y1749D01*
G01X5758Y1782D01*
G01X5805Y1823D01*
G01X5843Y1871D01*
G01X5875Y1923D01*
G01X5897Y1980D01*
G01X5912Y2040D01*
G01X5916Y2101D01*
G01X5912Y2162D01*
G01X5897Y2221D01*
G01X5875Y2278D01*
G01X5843Y2331D01*
G01X5805Y2378D01*
G01X5758Y2419D01*
G01X5707Y2452D01*
G01X5651Y2477D01*
G01X5592Y2493D01*
G01X7324Y2493D01*
G01X7281Y2485D01*
G01X7223Y2465D01*
G01X7170Y2435D01*
G01X7121Y2398D01*
G01X7079Y2354D01*
G01X7043Y2304D01*
G01X7016Y2249D01*
G01X6998Y2191D01*
G01X6988Y2130D01*
G01X6988Y2069D01*
G01X6998Y2008D01*
G01X7016Y1950D01*
G01X7043Y1895D01*
G01X7079Y1845D01*
G01X7121Y1801D01*
G01X7170Y1764D01*
G01X7223Y1734D01*
G01X7281Y1714D01*
G01X7341Y1702D01*
G01X7403Y1700D01*
G01X7463Y1707D01*
G01X7522Y1723D01*
G01X7578Y1748D01*
G01X7630Y1781D01*
G01X7676Y1822D01*
G01X7715Y1869D01*
G01X7746Y1922D01*
G01X7768Y1979D01*
G01X7783Y2038D01*
G01X7787Y2100D01*
G01X7783Y2161D01*
G01X7768Y2220D01*
G01X7746Y2277D01*
G01X7715Y2330D01*
G01X7676Y2377D01*
G01X7630Y2418D01*
G01X7578Y2451D01*
G01X7522Y2476D01*
G01X7463Y2492D01*
G01X7453Y2493D01*
G01X7880Y2493D01*
G01X7880Y-65D01*
G01X7458Y-65D01*
G01X7463Y-64D01*
G01X7522Y-48D01*
G01X7578Y-23D01*
G01X7630Y9D01*
G01X7676Y51D01*
G01X7715Y98D01*
G01X7746Y151D01*
G01X7768Y207D01*
G01X7783Y267D01*
G01X7787Y328D01*
G01X7783Y389D01*
G01X7768Y448D01*
G01X7746Y505D01*
G01X7715Y558D01*
G01X7676Y605D01*
G01X7630Y646D01*
G01X7578Y680D01*
G01X7522Y705D01*
G01X7463Y721D01*
G01X7403Y727D01*
G01X7341Y725D01*
G01X7281Y713D01*
G01X7223Y693D01*
G01X7170Y663D01*
G01X7121Y627D01*
G01X7079Y582D01*
G01X7043Y532D01*
G01X7016Y477D01*
G01X6998Y419D01*
G01X6988Y358D01*
G01X6988Y297D01*
G01X6998Y237D01*
G01X7016Y178D01*
G01X7043Y123D01*
G01X7079Y73D01*
G01X7121Y29D01*
G01X7170Y-7D01*
G01X7223Y-36D01*
G01X7281Y-57D01*
G01X7321Y-65D01*
G01X5588Y-65D01*
G01X5593Y-64D01*
G01X5652Y-48D01*
G01X5708Y-23D01*
G01X5759Y9D01*
G01X5806Y51D01*
G01X5844Y98D01*
G01X5876Y151D01*
G01X5898Y207D01*
G01X5913Y267D01*
G01X5917Y328D01*
G01X5913Y389D01*
G01X5898Y448D01*
G01X5876Y505D01*
G01X5844Y558D01*
G01X5806Y605D01*
G01X5759Y646D01*
G01X5708Y680D01*
G01X5652Y705D01*
G01X5593Y721D01*
G01X5533Y727D01*
G01X5471Y725D01*
G01X5411Y713D01*
G01X5353Y693D01*
G01X5300Y663D01*
G01X5251Y627D01*
G01X5209Y582D01*
G01X5173Y532D01*
G01X5146Y477D01*
G01X5128Y419D01*
G01X5124Y394D01*
G01X5111Y448D01*
G01X5088Y505D01*
G01X5057Y558D01*
G01X5018Y605D01*
G01X4972Y646D01*
G01X4921Y680D01*
G01X4865Y705D01*
G01X4806Y721D01*
G01X4745Y727D01*
G01X4683Y725D01*
G01X4623Y713D01*
G01X4566Y693D01*
G01X4512Y663D01*
G01X4463Y627D01*
G01X4421Y582D01*
G01X4386Y532D01*
G01X4358Y477D01*
G01X4340Y419D01*
G01X4336Y395D01*
G01X4323Y448D01*
G01X4301Y505D01*
G01X4269Y558D01*
G01X4231Y605D01*
G01X4184Y646D01*
G01X4133Y680D01*
G01X4077Y705D01*
G01X4018Y721D01*
G01X3958Y727D01*
G01X3896Y725D01*
G01X3836Y713D01*
G01X3778Y693D01*
G01X3725Y663D01*
G01X3676Y627D01*
G01X3634Y582D01*
G01X3598Y532D01*
G01X3571Y477D01*
G01X3553Y419D01*
G01X3543Y358D01*
G01X3543Y297D01*
G01X3553Y237D01*
G01X3571Y178D01*
G01X3598Y123D01*
G01X3634Y73D01*
G01X3676Y29D01*
G01X3725Y-7D01*
G01X3778Y-36D01*
G01X3836Y-57D01*
G01X3876Y-65D01*
G01X2046Y-65D01*
G37*

%LPC*%
G36*
G01X7403Y815D02*
G01X7463Y821D01*
G01X7522Y837D01*
G01X7578Y862D01*
G01X7630Y896D01*
G01X7676Y937D01*
G01X7715Y984D01*
G01X7746Y1037D01*
G01X7768Y1093D01*
G01X7783Y1153D01*
G01X7787Y1214D01*
G01X7783Y1275D01*
G01X7768Y1334D01*
G01X7746Y1391D01*
G01X7715Y1444D01*
G01X7676Y1491D01*
G01X7630Y1532D01*
G01X7578Y1566D01*
G01X7522Y1591D01*
G01X7463Y1607D01*
G01X7403Y1613D01*
G01X7341Y1611D01*
G01X7281Y1600D01*
G01X7223Y1579D01*
G01X7170Y1550D01*
G01X7121Y1513D01*
G01X7079Y1468D01*
G01X7043Y1418D01*
G01X7016Y1363D01*
G01X6998Y1305D01*
G01X6988Y1244D01*
G01X6988Y1183D01*
G01X6998Y1123D01*
G01X7016Y1065D01*
G01X7043Y1009D01*
G01X7079Y959D01*
G01X7121Y915D01*
G01X7170Y878D01*
G01X7223Y849D01*
G01X7281Y828D01*
G01X7341Y817D01*
G01X7403Y815D01*
G37*

%LPD*%
G36*
G01X4013Y-65D02*
G01X4018Y-64D01*
G01X4077Y-48D01*
G01X4133Y-23D01*
G01X4184Y9D01*
G01X4231Y51D01*
G01X4269Y98D01*
G01X4301Y151D01*
G01X4323Y207D01*
G01X4336Y261D01*
G01X4340Y237D01*
G01X4358Y178D01*
G01X4386Y123D01*
G01X4421Y73D01*
G01X4463Y29D01*
G01X4512Y-7D01*
G01X4566Y-36D01*
G01X4623Y-57D01*
G01X4663Y-65D01*
G01X4013Y-65D01*
G37*

%LPC*%

%LPD*%
G36*
G01X4801Y-65D02*
G01X4806Y-64D01*
G01X4865Y-48D01*
G01X4921Y-23D01*
G01X4972Y9D01*
G01X5018Y51D01*
G01X5057Y98D01*
G01X5088Y151D01*
G01X5111Y207D01*
G01X5124Y262D01*
G01X5128Y237D01*
G01X5146Y178D01*
G01X5173Y123D01*
G01X5209Y73D01*
G01X5251Y29D01*
G01X5300Y-7D01*
G01X5353Y-36D01*
G01X5411Y-57D01*
G01X5451Y-65D01*
G01X4801Y-65D01*
G37*

%LPC*%

%LPD*%
G36*
G01X6Y2162D02*
G01X6Y2493D01*
G01X336Y2493D01*
G01X293Y2485D01*
G01X236Y2465D01*
G01X182Y2435D01*
G01X133Y2398D01*
G01X91Y2354D01*
G01X56Y2304D01*
G01X28Y2249D01*
G01X10Y2191D01*
G01X6Y2162D01*
G37*

%LPC*%

%LPD*%
G36*
G01X1581Y2164D02*
G01X1567Y2220D01*
G01X1544Y2277D01*
G01X1513Y2330D01*
G01X1475Y2377D01*
G01X1428Y2418D01*
G01X1377Y2451D01*
G01X1321Y2476D01*
G01X1262Y2492D01*
G01X1252Y2493D01*
G01X1911Y2493D01*
G01X1868Y2485D01*
G01X1811Y2465D01*
G01X1757Y2435D01*
G01X1708Y2398D01*
G01X1666Y2354D01*
G01X1631Y2304D01*
G01X1603Y2249D01*
G01X1585Y2191D01*
G01X1581Y2164D01*
G37*

%LPC*%

%LPD*%
G36*
G01X4337Y2166D02*
G01X4323Y2220D01*
G01X4301Y2277D01*
G01X4269Y2330D01*
G01X4231Y2377D01*
G01X4184Y2418D01*
G01X4133Y2451D01*
G01X4077Y2476D01*
G01X4018Y2492D01*
G01X4008Y2493D01*
G01X4661Y2493D01*
G01X4624Y2486D01*
G01X4566Y2466D01*
G01X4513Y2436D01*
G01X4464Y2400D01*
G01X4422Y2355D01*
G01X4386Y2305D01*
G01X4359Y2250D01*
G01X4341Y2192D01*
G01X4337Y2166D01*
G37*

%LPC*%

%LPD*%
G36*
G01X793Y2168D02*
G01X781Y2220D01*
G01X758Y2277D01*
G01X727Y2330D01*
G01X688Y2377D01*
G01X642Y2418D01*
G01X591Y2451D01*
G01X534Y2476D01*
G01X476Y2492D01*
G01X466Y2493D01*
G01X1123Y2493D01*
G01X1080Y2485D01*
G01X1022Y2465D01*
G01X969Y2435D01*
G01X920Y2398D01*
G01X878Y2354D01*
G01X842Y2304D01*
G01X815Y2249D01*
G01X797Y2191D01*
G01X793Y2168D01*
G37*

%LPC*%

%LPD*%
G36*
G01X5123Y2171D02*
G01X5111Y2221D01*
G01X5088Y2278D01*
G01X5057Y2331D01*
G01X5018Y2378D01*
G01X4972Y2419D01*
G01X4921Y2452D01*
G01X4865Y2477D01*
G01X4806Y2493D01*
G01X5447Y2493D01*
G01X5410Y2486D01*
G01X5352Y2466D01*
G01X5299Y2436D01*
G01X5250Y2400D01*
G01X5208Y2355D01*
G01X5172Y2305D01*
G01X5145Y2250D01*
G01X5127Y2192D01*
G01X5123Y2171D01*
G37*

%LPC*%

%LPD*%
G54D10*
G01X7388Y328D02*
G01X6771Y328D01*
G01X6700Y400D01*
G01X4730Y2101D02*
G01X4730Y1569D01*
G01X4800Y1500D01*
G01X1186Y2100D02*
G01X1186Y1613D01*
G01X1300Y1500D01*
G54D11*
G01X400Y2100D03*
G01X1186Y2100D03*
G01X1975Y2100D03*
G01X400Y328D03*
G01X1186Y328D03*
G01X1975Y328D03*
G01X3942Y2100D03*
G01X4730Y2101D03*
G01X5517Y2101D03*
G01X3942Y328D03*
G01X4730Y328D03*
G01X5517Y328D03*
G01X7388Y2100D03*
G01X7388Y328D03*
G01X7388Y1213D03*
G01X400Y2100D03*
G01X1186Y2100D03*
G01X1975Y2100D03*
G01X400Y328D03*
G01X1186Y328D03*
G01X1975Y328D03*
G01X3942Y2100D03*
G01X4730Y2101D03*
G01X5517Y2101D03*
G01X3942Y328D03*
G01X4730Y328D03*
G01X5517Y328D03*
G01X7388Y2100D03*
G01X7388Y328D03*
G01X7388Y1213D03*

M00*
M02*