G04 ---------------------------- Layer name :TOP SILK LAYER*
G04 easyEDA 0.1*
G04 Scale: 100 percent, Rotated: No, Reflected: No *
G04 Dimensions in inches *
G04 leading zeros omitted , absolute positions ,2 integer and 4 * 
%FSLAX24Y24*%
%MOIN*%
G90*
G70D02*

%ADD11C,0.008000*%

%LPD*%
G54D11*
G01X321Y1391D02*
G01X321Y1413D01*
G01X342Y1456D01*
G01X363Y1477D01*
G01X407Y1499D01*
G01X492Y1499D01*
G01X536Y1477D01*
G01X557Y1456D01*
G01X578Y1413D01*
G01X578Y1370D01*
G01X557Y1327D01*
G01X515Y1262D01*
G01X300Y1048D01*
G01X601Y1048D01*
G01X871Y1499D02*
G01X807Y1477D01*
G01X763Y1413D01*
G01X742Y1305D01*
G01X742Y1241D01*
G01X763Y1134D01*
G01X807Y1069D01*
G01X871Y1048D01*
G01X913Y1048D01*
G01X978Y1069D01*
G01X1021Y1134D01*
G01X1042Y1241D01*
G01X1042Y1305D01*
G01X1021Y1413D01*
G01X978Y1477D01*
G01X913Y1499D01*
G01X871Y1499D01*
G01X1184Y1413D02*
G01X1228Y1434D01*
G01X1292Y1499D01*
G01X1292Y1048D01*
G01X1734Y1499D02*
G01X1519Y1048D01*
G01X1434Y1499D02*
G01X1734Y1499D01*
G01X1876Y1241D02*
G01X2263Y1241D01*
G01X2405Y1413D02*
G01X2446Y1434D01*
G01X2511Y1499D01*
G01X2511Y1048D01*
G01X2675Y1391D02*
G01X2675Y1413D01*
G01X2696Y1456D01*
G01X2717Y1477D01*
G01X2761Y1499D01*
G01X2846Y1499D01*
G01X2890Y1477D01*
G01X2911Y1456D01*
G01X2932Y1413D01*
G01X2932Y1370D01*
G01X2911Y1327D01*
G01X2867Y1262D01*
G01X2653Y1048D01*
G01X2953Y1048D01*
G01X3096Y1241D02*
G01X3482Y1241D01*
G01X3623Y1413D02*
G01X3667Y1434D01*
G01X3732Y1499D01*
G01X3732Y1048D01*
G01X4130Y1499D02*
G01X3915Y1499D01*
G01X3894Y1305D01*
G01X3915Y1327D01*
G01X3980Y1348D01*
G01X4044Y1348D01*
G01X4109Y1327D01*
G01X4153Y1284D01*
G01X4173Y1220D01*
G01X4173Y1177D01*
G01X4153Y1112D01*
G01X4109Y1069D01*
G01X4044Y1048D01*
G01X3980Y1048D01*
G01X3915Y1069D01*
G01X3894Y1091D01*
G01X3873Y1134D01*
G01X6600Y2213D02*
G01X6642Y2234D01*
G01X6707Y2299D01*
G01X6707Y1848D01*
G01X6621Y1392D02*
G01X6621Y1413D01*
G01X6642Y1457D01*
G01X6663Y1478D01*
G01X6707Y1500D01*
G01X6792Y1500D01*
G01X6836Y1478D01*
G01X6857Y1457D01*
G01X6878Y1413D01*
G01X6878Y1371D01*
G01X6857Y1328D01*
G01X6815Y1263D01*
G01X6600Y1048D01*
G01X6901Y1048D01*
G01X6926Y463D02*
G01X6905Y505D01*
G01X6863Y548D01*
G01X6819Y571D01*
G01X6734Y571D01*
G01X6690Y548D01*
G01X6648Y505D01*
G01X6626Y463D01*
G01X6605Y398D01*
G01X6605Y292D01*
G01X6626Y226D01*
G01X6648Y184D01*
G01X6690Y140D01*
G01X6734Y119D01*
G01X6819Y119D01*
G01X6863Y140D01*
G01X6905Y184D01*
G01X6926Y226D01*
G01X6926Y292D01*
G01X6819Y292D02*
G01X6926Y292D01*

M00*
M02*